<svg width="100%" height="100%" viewBox="0 0 176 176" version="1.1"
    xmlns="http://www.w3.org/2000/svg"
    xmlns:xlink="http://www.w3.org/1999/xlink" xml:space="preserve"
    xmlns:serif="http://www.serif.com/" fill="currentColor" width="80" height="80" style="fill-rule:evenodd;clip-rule:evenodd;stroke-linejoin:round;stroke-miterlimit:2;">
    <g transform="matrix(1,0,0,1,-40,-40)">
        <g>
            <path d="M216,48C216,43.585 212.415,40 208,40L48,40C43.585,40 40,43.585 40,48L40,208C40,212.415 43.585,216 48,216L208,216C212.415,216 216,212.415 216,208L216,48Z" style="fill:none;"/>
            <g transform="matrix(0.7,0,0,1.51905,146.4,-108.462)">
                <path d="M88,107.608C88,105.065 83.519,103 78,103L58,103C52.481,103 48,105.065 48,107.608L48,203.392C48,205.935 52.481,208 58,208L78,208C83.519,208 88,205.935 88,203.392L88,107.608Z"/>
            </g>
            <g transform="matrix(1,0,0,1,49.5,5.25)">
                <path d="M123,108.75C123,105.576 120.424,103 117.25,103L105.75,103C102.576,103 100,105.576 100,108.75L100,136.25C100,139.424 102.576,142 105.75,142L117.25,142C120.424,142 123,139.424 123,136.25L123,108.75Z"/>
            </g>
            <g transform="matrix(0.7,0,0,1.51905,80.4,-108.462)">
                <path d="M88,107.608C88,105.065 83.519,103 78,103L58,103C52.481,103 48,105.065 48,107.608L48,203.392C48,205.935 52.481,208 58,208L78,208C83.519,208 88,205.935 88,203.392L88,107.608Z"/>
            </g>
            <g transform="matrix(1,0,0,2.54487,-16.5,-214.122)">
                <path d="M123,105.259C123,104.012 120.424,103 117.25,103L105.75,103C102.576,103 100,104.012 100,105.259L100,139.741C100,140.988 102.576,142 105.75,142L117.25,142C120.424,142 123,140.988 123,139.741L123,105.259"/>
            </g>
            <g transform="matrix(0.7,0,0,1.51905,14.4,-108.462)">
                <path d="M88,107.608C88,105.065 83.519,103 78,103L58,103C52.481,103 48,105.065 48,107.608L48,203.392C48,205.935 52.481,208 58,208L78,208C83.519,208 88,205.935 88,203.392L88,107.608"/>
            </g>
        </g>
    </g>
</svg>
